HIERARCHY
ROOT Hips
{
 OFFSET 0.000000 0.000000 0.000000
 CHANNELS 6 Xposition Yposition Zposition Yrotation Xrotation Zrotation
 JOINT Chest
 {
  OFFSET 0.000000 10.678932 0.006280
  CHANNELS 3 Yrotation Xrotation Zrotation
  JOINT Chest2
  {
   OFFSET 0.000000 10.491159 -0.011408
   CHANNELS 3 Yrotation Xrotation Zrotation
   JOINT Chest3
   {
    OFFSET 0.000000 9.479342 0.000000
    CHANNELS 3 Yrotation Xrotation Zrotation
    JOINT Chest4
    {
     OFFSET 0.000000 9.479342 0.000000
     CHANNELS 3 Yrotation Xrotation Zrotation
     JOINT Neck
     {
      OFFSET 0.000000 13.535332 0.000000
      CHANNELS 3 Yrotation Xrotation Zrotation
      JOINT Head
      {
       OFFSET 0.000000 8.819083 -0.027129
       CHANNELS 3 Yrotation Xrotation Zrotation
       End Site
       {
        OFFSET 0.000000 16.966594 -0.014170
       }
      }
     }
     JOINT RightCollar
     {
      OFFSET -3.012546 7.545150 0.000000
      CHANNELS 3 Yrotation Xrotation Zrotation
      JOINT RightShoulder
      {
       OFFSET -13.683099 0.000000 0.000000
       CHANNELS 3 Yrotation Xrotation Zrotation
       JOINT RightElbow
       {
        OFFSET -26.359998 0.000000 0.000000
        CHANNELS 3 Yrotation Xrotation Zrotation
        JOINT RightWrist
        {
         OFFSET -21.746691 0.000000 0.008601
         CHANNELS 3 Yrotation Xrotation Zrotation
         End Site
         {
          OFFSET -16.348058 0.000000 0.000000
         }
        }
       }
      }
     }
     JOINT LeftCollar
     {
      OFFSET 3.012546 7.545150 0.000000
      CHANNELS 3 Yrotation Xrotation Zrotation
      JOINT LeftShoulder
      {
       OFFSET 13.683099 0.000000 0.000000
       CHANNELS 3 Yrotation Xrotation Zrotation
       JOINT LeftElbow
       {
        OFFSET 26.359998 0.000000 0.000000
        CHANNELS 3 Yrotation Xrotation Zrotation
        JOINT LeftWrist
        {
         OFFSET 21.746691 0.000000 0.008601
         CHANNELS 3 Yrotation Xrotation Zrotation
         End Site
         {
          OFFSET 16.348058 0.000000 0.000000
         }
        }
       }
      }
     }
    }
   }
  }
 }
 JOINT RightHip
 {
  OFFSET -8.622479 -0.030774 -0.003140
  CHANNELS 3 Yrotation Xrotation Zrotation
  JOINT RightKnee
  {
   OFFSET 0.000000 -37.209160 -0.002630
   CHANNELS 3 Yrotation Xrotation Zrotation
   JOINT RightAnkle
   {
    OFFSET 0.000000 -37.343279 -0.058479
    CHANNELS 3 Yrotation Xrotation Zrotation
    JOINT RightToe
    {
     OFFSET 0.000000 -8.903465 15.088070
     CHANNELS 3 Yrotation Xrotation Zrotation
     End Site
     {
      OFFSET 0.000000 -1.471739 6.884388
     }
    }
   }
  }
 }
 JOINT LeftHip
 {
  OFFSET 8.622479 -0.030774 -0.003140
  CHANNELS 3 Yrotation Xrotation Zrotation
  JOINT LeftKnee
  {
   OFFSET 0.000000 -37.209160 -0.002630
   CHANNELS 3 Yrotation Xrotation Zrotation
   JOINT LeftAnkle
   {
    OFFSET 0.000000 -37.343279 -0.058479
    CHANNELS 3 Yrotation Xrotation Zrotation
    JOINT LeftToe
    {
     OFFSET 0.000000 -8.903465 15.088070
     CHANNELS 3 Yrotation Xrotation Zrotation
     End Site
     {
      OFFSET 0.000000 -1.471739 6.884388
     }
    }
   }
  }
 }
}
MOTION
Frames: 9
Frame Time: 0.200000
-0.667786 83.315683 -16.073400 0.000000 -5.826342 0.000000 0.000000 11.116423 0.000000 0.000000 -5.290081 0.000000 0.000000 0.000000 0.000000 0.000000 0.000000 0.000000 0.000000 12.665069 0.000000 0.000000 0.575450 0.000000 0.000000 0.000000 0.000000 0.000000 0.000000 0.000000 2.337306 0.000000 0.000000 -2.337306 0.000000 0.000000 0.000000 0.000000 0.000000 0.000000 0.000000 0.000000 -2.337306 0.000000 0.000000 2.337306 0.000000 0.000000 0.000000 8.578828 0.000000 0.000000 1.905768 0.000000 0.000000 -4.658254 0.000000 0.000000 0.000000 0.000000 0.000000 8.578828 0.000000 0.000000 1.905768 0.000000 0.000000 -4.658254 0.000000 0.000000 0.000000 0.000000
-175.508617 82.275581 -66.977324 68.344673 -7.843370 -0.858340 -3.238075 4.532737 -0.200952 -0.121345 0.198494 0.003718 -0.197927 0.323778 0.005849 -2.729974 4.462314 -0.018010 2.393291 15.559792 -0.349882 4.597228 -7.238841 -1.539178 5.814374 -3.463244 -0.153019 13.421951 28.998100 56.995489 95.170160 15.454374 51.407758 30.828675 9.056130 -9.283720 10.356655 -1.926243 6.864606 -31.891602 25.490369 -65.896499 -104.104669 20.165615 -51.465316 -25.917363 12.511506 31.184028 -3.417448 12.348550 -14.895265 -9.599533 1.811776 -0.272088 3.300363 -4.329745 13.063156 0.037018 -0.143905 0.040173 14.475063 15.138774 17.308290 6.463680 -5.627089 -0.021761 -3.393682 -2.826368 -16.899954 0.029064 0.056762 0.027939
-175.557063 82.259501 -67.181269 68.478247 -7.226273 -0.616848 -2.673426 4.317792 -0.474825 -0.090960 0.171703 -0.009144 -0.149199 0.281604 -0.015141 -2.263062 4.243837 -0.306913 2.070677 16.580806 -0.367906 3.972787 -5.353676 -1.417611 5.096496 -3.617111 0.040985 13.602342 28.858699 57.417590 95.100153 15.688406 51.616400 30.806395 9.169981 -9.343242 9.945179 -1.165911 8.507078 -31.205591 24.018178 -66.015670 -104.750870 20.003338 -51.442710 -26.231227 12.457931 30.227250 -3.936908 11.921659 -15.265398 -9.419422 1.541891 -0.278307 3.387738 -4.325770 13.108896 0.027371 -0.108203 0.029848 13.752101 14.823369 16.751766 7.013334 -5.711150 -0.121855 -3.327809 -2.758427 -16.894786 0.031049 0.048425 0.032428
-175.602203 82.256924 -67.353231 69.182547 -6.964675 -0.425047 -2.751659 4.283678 -0.398558 -0.096866 0.166647 -0.006624 -0.158921 0.273381 -0.011015 -2.417921 4.138418 -0.248642 2.574807 16.726396 -0.853282 5.074138 -5.042811 -2.489213 5.112051 -3.546510 -0.174467 13.897002 28.686897 57.405407 95.085343 15.681998 51.753965 30.867303 9.184176 -9.488989 9.742336 -1.190327 7.966773 -31.453445 24.391382 -66.079449 -103.888006 20.010043 -51.327770 -26.405874 12.613892 30.861078 -4.629986 11.938874 -15.643793 -9.426090 1.422736 -0.174144 3.337427 -4.337262 13.112474 0.027933 -0.127562 0.029782 13.373398 14.532010 16.482401 7.102760 -5.733462 -0.204990 -3.609494 -2.684201 -16.971339 0.020606 0.062498 0.032545
-175.687095 82.260347 -67.470056 69.582119 -6.906814 -0.406075 -2.832471 4.223233 -0.299591 -0.105480 0.157644 -0.002663 -0.173130 0.258739 -0.004524 -2.651898 3.951139 -0.154679 2.540134 16.802502 -0.557551 4.903133 -4.917479 -1.925818 5.363867 -3.486471 -0.239843 14.206835 28.656617 57.223119 95.020526 15.523841 52.019522 30.900821 9.164080 -9.661165 9.646166 -0.962734 7.895651 -32.280099 24.223585 -65.967030 -103.475009 19.835040 -51.370504 -26.510291 12.714780 31.513127 -4.667731 12.210759 -15.617584 -9.592818 1.240511 -0.197767 3.208296 -4.394084 13.126807 0.060401 -0.148724 0.034989 14.314326 14.359086 16.626990 6.211463 -6.118889 -0.134156 -3.770664 -2.488674 -17.019444 -0.062151 0.077229 -0.034640
-175.888917 82.264325 -67.670454 69.691129 -7.026303 -0.388940 -3.076186 4.187023 -0.183187 -0.118553 0.158466 0.001788 -0.194339 0.259771 0.002759 -2.909686 3.884905 -0.050823 2.583536 16.189200 -1.050236 5.182850 -6.028925 -2.883870 5.997849 -3.832364 -0.463443 15.148466 29.172968 57.956582 94.476087 15.770734 52.119536 30.828775 9.176862 -10.564276 9.672676 -1.304702 7.399676 -33.144291 24.954634 -66.354611 -102.526853 19.681542 -51.245134 -26.524595 12.862407 32.552036 -4.662154 12.331381 -15.655187 -9.549255 1.244396 -0.217275 3.157890 -4.376873 13.125424 0.060596 -0.170540 0.040632 14.419330 14.418291 16.623599 6.088491 -6.117598 -0.125523 -3.784445 -2.483697 -17.024357 -0.036262 0.107377 -0.018177
-176.184732 82.267726 -67.751258 69.560601 -7.241017 -0.598655 -3.011835 4.305006 -0.224322 -0.117468 0.164587 0.000050 -0.192441 0.269631 -0.000095 -2.851710 3.987861 -0.094005 2.622355 16.248092 -0.764034 5.149711 -5.932825 -2.363137 6.635047 -4.176100 -0.226799 14.393340 29.809352 57.859076 94.426625 15.917860 52.281564 30.892926 9.321132 -11.018380 9.693268 -1.561854 7.212544 -33.463548 25.060513 -66.146845 -102.241095 19.264991 -50.907501 -26.322942 12.796140 32.482808 -4.347316 12.484364 -15.333303 -9.662701 1.296908 -0.226000 3.198651 -4.361420 13.027884 0.056636 -0.161310 0.035819 14.334008 14.572717 16.899472 6.378203 -6.016344 -0.145121 -3.737157 -2.514142 -17.037161 -0.018633 0.131986 -0.016147
-176.437871 82.275667 -67.907289 69.860646 -7.141913 -0.646488 -3.138218 4.382561 -0.247174 -0.127189 0.170804 0.000409 -0.208040 0.279380 0.000472 -3.002928 4.025195 -0.091432 2.530621 16.123156 -0.830199 5.008001 -6.165420 -2.459079 7.527961 -4.462078 -0.190763 14.036241 30.205529 57.581663 94.307869 15.971514 52.459874 31.004799 9.255239 -11.381093 9.869016 -1.595882 6.936738 -33.394968 25.124573 -65.961376 -102.149336 19.060010 -50.771433 -26.263692 12.732426 32.463056 -4.374063 12.479080 -15.202979 -9.902342 1.179216 -0.297750 3.194065 -4.250311 13.084564 0.078044 -0.222095 0.039452 14.820476 14.317417 17.072141 6.313047 -6.218951 -0.220438 -4.195140 -2.392761 -17.252708 -0.032009 0.165875 0.007159
-176.643351 82.289209 -68.054530 69.976627 -7.080339 -0.722505 -3.169206 4.314672 -0.160200 -0.128020 0.166528 0.003563 -0.209481 0.272502 0.005636 -3.042033 3.955020 -0.015975 2.553495 16.445160 -0.828465 5.036998 -5.566927 -2.448887 7.731773 -4.298603 -0.285388 14.157329 30.160384 57.404998 94.364475 15.939214 52.582810 31.009983 9.226207 -11.551875 10.053637 -1.572422 7.012707 -33.676911 25.049295 -65.952251 -102.075042 19.063016 -50.608644 -26.239728 12.740574 32.431647 -4.514683 12.064895 -15.243032 -9.525982 1.797004 -0.172033 3.085430 -4.427527 12.944197 0.070660 -0.225565 0.055028 14.968126 14.218066 17.181333 6.166959 -6.272480 -0.247639 -4.147342 -2.350859 -17.313509 -0.027687 0.157096 -0.005123
